<svg xmlns="http://www.w3.org/2000/svg" width="23" height="25" viewBox="-1 0 23 25" fill="none">
  <path d="M15.8552 11.4131H4.71619V12.8912H15.8552V11.4131V11.4131Z" fill="#333333"/>
  <path d="M15.8552 6.52148H4.71619V7.99958H15.8552V6.52148Z" fill="#333333"/>
  <path d="M15.8552 16.3047H4.71619V17.7828H15.8552V16.3047Z" fill="#333333"/>
  <path d="M19.8933 0.700952C19.4514 0.251429 18.8648 0 18.24 0H2.33143C1.71429 0 1.11238 0.251429 0.678095 0.700952C0.24381 1.15048 0 1.73714 0 2.36952V21.9352C0 22.5676 0.23619 23.1543 0.678095 23.6038C1.12 24.0533 1.70667 24.3048 2.33143 24.3048H18.24C18.8571 24.3048 19.459 24.0533 19.8933 23.6038C20.3276 23.1543 20.5714 22.5676 20.5714 21.9352V2.36952C20.5714 1.73714 20.3352 1.15048 19.8933 0.700952V0.700952ZM19.101 21.9352C19.101 22.1714 19.0095 22.4076 18.8419 22.5752C18.6819 22.7429 18.4686 22.8267 18.2476 22.8267H2.33143C2.11048 22.8267 1.89714 22.7352 1.73714 22.5752C1.57714 22.4076 1.4781 22.179 1.4781 21.9352V12.9676V2.36952C1.4781 2.13333 1.56952 1.89714 1.73714 1.72952C1.89714 1.5619 2.11048 1.4781 2.33143 1.4781H18.2476C18.4686 1.4781 18.6819 1.56952 18.8419 1.72952C19.0019 1.89714 19.101 2.12571 19.101 2.36952V11.3371V21.9352V21.9352Z" fill="#333333"/>
</svg>
