<svg xmlns="http://www.w3.org/2000/svg" width="23" height="25" viewBox="0 0 23 25" fill="none">
  <path d="M17.6991 11.5889H6.56006V13.067H17.6991V11.5889V11.5889Z" fill="#333333"/>
  <path d="M17.6989 6.69727H11.337V8.17536H17.6989V6.69727Z" fill="#333333"/>
  <path d="M17.6991 16.4805H6.56006V17.9586H17.6991V16.4805Z" fill="#333333"/>
  <path d="M21.7371 0.875757C21.3028 0.433852 20.7009 0.174805 20.0838 0.174805H14.3161V1.6529H20.0914C20.3123 1.6529 20.5257 1.74433 20.6857 1.90433C20.8457 2.07195 20.9447 2.30052 20.9447 2.54433V22.11C20.9447 22.3462 20.8533 22.5824 20.6857 22.75C20.5257 22.9177 20.3123 23.0015 20.0914 23.0015H4.17518C3.95423 23.0015 3.74089 22.91 3.58089 22.75C3.42089 22.5824 3.32185 22.3539 3.32185 22.11V13.1424H1.84375V22.11C1.84375 22.7424 2.07994 23.3291 2.52185 23.7786C2.96375 24.2281 3.55042 24.4796 4.17518 24.4796H20.0838C20.7009 24.4796 21.3028 24.2281 21.7371 23.7786C22.1714 23.3291 22.4152 22.7424 22.4152 22.11V2.54433C22.4152 1.91195 22.1714 1.32528 21.7371 0.875757Z" fill="#333333"/>
  <path d="M4.55619 9.79048L0 6.09524L0.96 4.91429L4.37333 7.68L11.0552 0L12.2057 0.998095L4.55619 9.79048Z" fill="#333333"/>
</svg>
