<svg xmlns="http://www.w3.org/2000/svg" width="23" height="25" viewBox="0 0 23 25" fill="none">
  <g clip-path="url(#clip0_31318_4660)">
    <path d="M17.6685 11.4209H13.6609V12.899H17.6685V11.4209V11.4209Z" fill="#333333"/>
    <path d="M5.98865 2.68945V6.69707H7.46674V2.68945H5.98865V2.68945Z" fill="#333333"/>
    <path d="M5.98865 7.82471V9.26471H7.46674V7.82471H5.98865V7.82471Z" fill="#333333"/>
    <path d="M17.6686 6.5293H15.6648V8.00739H17.6686V6.5293Z" fill="#333333"/>
    <path d="M17.6686 16.3125H6.52954V17.7906H17.6686V16.3125Z" fill="#333333"/>
    <path d="M21.7066 0.708571C21.2723 0.266667 20.6704 0 20.0532 0H13.5237V1.4781H20.0609C20.2818 1.4781 20.4951 1.56952 20.6551 1.72952C20.8151 1.89714 20.9142 2.12571 20.9142 2.36952V21.9352C20.9142 22.1714 20.8228 22.4076 20.6551 22.5752C20.4951 22.7429 20.2818 22.8267 20.0609 22.8267H4.14466C3.92371 22.8267 3.71038 22.7352 3.55038 22.5752C3.39038 22.4076 3.29133 22.179 3.29133 21.9352V13.7295H1.81323V21.9352C1.81323 22.5676 2.04942 23.1543 2.49133 23.6038C2.93323 24.0533 3.5199 24.3048 4.14466 24.3048H20.0532C20.6704 24.3048 21.2723 24.0533 21.7066 23.6038C22.1409 23.1543 22.3847 22.5676 22.3847 21.9352V2.37714C22.3847 1.74476 22.1409 1.1581 21.7066 0.708571V0.708571Z" fill="#333333"/>
    <path d="M9.70681 11.8704H3.7411C3.46681 11.8704 3.21539 11.7256 3.07824 11.4894L0.099195 6.32371C-0.0379478 6.08752 -0.0379478 5.79799 0.099195 5.5618L3.08586 0.396089C3.223 0.159899 3.47443 0.0151367 3.74872 0.0151367H9.71443C9.98872 0.0151367 10.2401 0.159899 10.3773 0.396089L13.3563 5.5618C13.4935 5.79799 13.4935 6.08752 13.3563 6.32371L10.3773 11.4894C10.2401 11.7256 9.98872 11.8704 9.71443 11.8704H9.70681ZM4.183 10.3466H9.26491L11.8021 5.94276L9.26491 1.53895H4.183L1.64586 5.94276L4.183 10.3466Z" fill="#333333"/>
  </g>
  <defs>
    <clipPath id="clip0_31318_4660">
      <rect width="22.3848" height="24.3048" fill="white"/>
    </clipPath>
  </defs>
</svg>
