<svg width="24" height="24" viewBox="0 0 24 24" fill="none" xmlns="http://www.w3.org/2000/svg">
<path d="M18.1432 21H8.50031C8.15942 20.9997 7.8326 20.8641 7.59155 20.6231C7.35051 20.382 7.21494 20.0552 7.2146 19.7143V15.8572H8.50031V19.7143H18.1432V5.57148H12.3574V4.28577H18.1432C18.484 4.28611 18.8109 4.42167 19.0519 4.66272C19.293 4.90376 19.4285 5.23059 19.4289 5.57148V19.7143C19.4285 20.0552 19.293 20.382 19.0519 20.6231C18.8109 20.8641 18.484 20.9997 18.1432 21Z" fill="#333333"/>
<path d="M12.3571 8.14285H16.8571V9.42856H12.3571V8.14285ZM11.7143 11.3571H16.8571V12.6428H11.7143V11.3571ZM11.0714 14.5714H16.8571V15.8571H11.0714V14.5714ZM7.21428 13.9286C6.36206 13.9277 5.54499 13.5888 4.94238 12.9862C4.33977 12.3836 4.00085 11.5665 4 10.7143V3.64286H5.28571V10.7143C5.28571 11.2258 5.4889 11.7163 5.85058 12.078C6.21225 12.4397 6.70279 12.6428 7.21428 12.6428C7.72577 12.6428 8.21631 12.4397 8.57798 12.078C8.93966 11.7163 9.14285 11.2258 9.14285 10.7143V4.92857C9.14285 4.75807 9.07512 4.59456 8.95456 4.474C8.834 4.35344 8.67049 4.28571 8.49999 4.28571C8.3295 4.28571 8.16598 4.35344 8.04542 4.474C7.92487 4.59456 7.85714 4.75807 7.85714 4.92857V11.3571H6.57142V4.92857C6.57142 4.41708 6.77461 3.92654 7.13629 3.56486C7.49796 3.20319 7.9885 3 8.49999 3C9.01148 3 9.50202 3.20319 9.8637 3.56486C10.2254 3.92654 10.4286 4.41708 10.4286 4.92857V10.7143C10.4277 11.5665 10.0888 12.3836 9.48618 12.9862C8.88357 13.5888 8.0665 13.9277 7.21428 13.9286Z" fill="#333333"/>
</svg>
