<svg width="23" height="25" viewBox="5 4 31.28 34" fill="none" xmlns="http://www.w3.org/2000/svg">
<path d="M29.4399 20.13H17.9399V22.07H29.4399V20.13Z" fill="#333333"/>
<path d="M29.4399 13.71H17.9399V15.65H29.4399V13.71Z" fill="#333333"/>
<path d="M29.4401 26.55H14.8201V28.49H29.4401V26.55Z" fill="#333333"/>
<path d="M34.7401 6.07002C34.1701 5.49002 33.3801 5.15002 32.5701 5.15002H17.9401V7.09002H32.5801C32.8701 7.09002 33.1501 7.21002 33.3601 7.42002C33.5701 7.64002 33.7001 7.94002 33.7001 8.26002V33.94C33.7001 34.25 33.5801 34.56 33.3601 34.78C33.1501 35 32.8701 35.11 32.5801 35.11H11.6901C11.4001 35.11 11.1201 34.99 10.9101 34.78C10.7001 34.56 10.5701 34.26 10.5701 33.94L10.5401 28.49H8.6001L8.6301 33.94C8.6301 34.77 8.9401 35.54 9.5201 36.13C10.1001 36.72 10.8701 37.05 11.6901 37.05H32.5701C33.3801 37.05 34.1701 36.72 34.7401 36.13C35.3101 35.54 35.6301 34.77 35.6301 33.94V8.26002C35.6301 7.43002 35.3101 6.66002 34.7401 6.07002Z" fill="#333333"/>
<path d="M13.32 17.67C13.06 17.67 12.82 17.77 12.64 17.95C12.46 18.13 12.35 18.37 12.34 18.62L12.32 21.26C12.32 21.86 11.99 22.42 11.47 22.72C10.95 23.02 10.3 23.01 9.78 22.72C9.26 22.42 8.94 21.85 8.94 21.25L8.97 15.88C8.97 15.43 9.15 15 9.47 14.68C9.79 14.36 10.22 14.18 10.68 14.18C10.94 14.18 11.18 14.07 11.36 13.89C11.54 13.71 11.65 13.47 11.65 13.21C11.65 12.95 11.55 12.71 11.37 12.52C11.19 12.34 10.94 12.23 10.68 12.23C10.21 12.23 9.73 12.32 9.29 12.5C8.85 12.68 8.45 12.94 8.1 13.29C7.76 13.63 7.49 14.03 7.3 14.47C7.11 14.91 7.02 15.38 7.02 15.87L7 21.24C7 22.21 7.36 23.13 8.05 23.83C8.73 24.52 9.64 24.91 10.62 24.92H10.65C11.12 24.92 11.57 24.83 12.01 24.65C12.45 24.47 12.85 24.21 13.19 23.87C13.54 23.53 13.81 23.13 13.99 22.68C14.18 22.23 14.27 21.76 14.28 21.28L14.3 18.64C14.3 18.38 14.2 18.14 14.02 17.95C13.84 17.77 13.59 17.66 13.33 17.66L13.32 17.67Z" fill="#333333"/>
<path d="M13.3 6.09C12.62 5.4 11.71 5 10.73 5H10.7C10.23 5 9.78005 5.09 9.34005 5.27C8.90005 5.45 8.50005 5.71 8.15005 6.06C7.81005 6.4 7.54005 6.8 7.35005 7.24C7.16005 7.69 7.07005 8.16 7.07005 8.64L7.05005 11.28C7.05005 11.62 7.24005 11.94 7.54005 12.11C7.84005 12.28 8.21005 12.28 8.50005 12.11C8.80005 11.94 8.99005 11.63 9.00005 11.28V8.64C9.02005 8.04 9.34005 7.48 9.87005 7.18C10.39 6.88 11.04 6.88 11.56 7.18C12.08 7.48 12.4 8.05 12.4 8.65L12.37 13.96C12.37 14.41 12.19 14.85 11.87 15.16C11.55 15.48 11.12 15.66 10.66 15.66C10.32 15.66 10 15.85 9.83005 16.15C9.66005 16.44 9.66005 16.81 9.83005 17.11C10 17.41 10.31 17.6 10.66 17.61H10.69C11.16 17.61 11.62 17.52 12.06 17.34C12.51 17.16 12.9 16.89 13.24 16.55C13.58 16.21 13.85 15.81 14.04 15.37C14.23 14.92 14.32 14.45 14.32 13.97L14.35 8.67C14.35 7.7 13.99 6.78 13.3 6.08V6.09Z" fill="#333333"/>
</svg>
