<svg xmlns="http://www.w3.org/2000/svg" width="23" height="25" viewBox="0 0 23 25" fill="none">
  <path d="M17.4933 11.4209H11.1313V12.899H17.4933V11.4209Z" fill="#333333"/>
  <path d="M17.4934 6.5293H14.3086V8.00739H17.4934V6.5293Z" fill="#333333"/>
  <path d="M17.4934 16.3125H6.35437V17.7906H17.4934V16.3125Z" fill="#333333"/>
  <path d="M21.5314 0.708571C21.0971 0.266667 20.4952 0 19.8781 0H13.3485V1.4781H19.8857C20.1066 1.4781 20.32 1.56952 20.48 1.72952C20.64 1.89714 20.739 2.12571 20.739 2.36952V21.9352C20.739 22.1714 20.6476 22.4076 20.48 22.5752C20.32 22.7429 20.1066 22.8267 19.8857 22.8267H3.96949C3.74854 22.8267 3.5352 22.7352 3.3752 22.5752C3.2152 22.4076 3.11616 22.179 3.11616 21.9352V13.7295H1.63806V21.9352C1.63806 22.5676 1.87425 23.1543 2.31616 23.6038C2.75806 24.0533 3.34473 24.3048 3.96949 24.3048H19.8781C20.4952 24.3048 21.0971 24.0533 21.5314 23.6038C21.9657 23.1543 22.2095 22.5676 22.2095 21.9352V2.37714C22.2095 1.74476 21.9657 1.1581 21.5314 0.708571V0.708571Z" fill="#333333"/>
  <path d="M5.94286 11.8933C2.66667 11.8933 0 9.22667 0 5.94286C0 2.65905 2.66667 0 5.94286 0C9.21905 0 11.8857 2.66667 11.8857 5.94286C11.8857 9.21905 9.21905 11.8857 5.94286 11.8857V11.8933ZM5.94286 1.52381C3.50476 1.52381 1.52381 3.50476 1.52381 5.94286C1.52381 8.38095 3.50476 10.3619 5.94286 10.3619C8.38095 10.3619 10.3619 8.38095 10.3619 5.94286C10.3619 3.50476 8.38095 1.52381 5.94286 1.52381Z" fill="#333333"/>
  <path d="M7.34484 8.39598L5.18103 6.93313V2.45312H6.70484V6.12551L8.19817 7.13122L7.34484 8.39598Z" fill="#333333"/>
</svg>
