<svg xmlns="http://www.w3.org/2000/svg" width="23" height="25" viewBox="0 0 23 25" fill="none">
  <path d="M17.5695 11.4229H6.43042V12.9009H17.5695V11.4229Z" fill="#333333"/>
  <path d="M17.5695 6.53125H11.2076V8.00935H17.5695V6.53125Z" fill="#333333"/>
  <path d="M17.5695 16.3145H6.43042V17.7925H17.5695V16.3145Z" fill="#333333"/>
  <path d="M21.6076 0.710525C21.1733 0.26862 20.5714 0.00195312 19.9542 0.00195312H11.139V1.48005H19.9619C20.1828 1.48005 20.3961 1.57148 20.5561 1.73148C20.7161 1.8991 20.8152 2.12767 20.8152 2.37148V21.9372C20.8152 22.1734 20.7238 22.4096 20.5561 22.5772C20.3961 22.7448 20.1828 22.8286 19.9619 22.8286H4.04566C3.82471 22.8286 3.61138 22.7372 3.45138 22.5772C3.29138 22.4096 3.19233 22.181 3.19233 21.9372V12.9696H1.71423V21.9372C1.71423 22.5696 1.95042 23.1562 2.39233 23.6058C2.83423 24.0553 3.4209 24.3067 4.04566 24.3067H19.9542C20.5714 24.3067 21.1733 24.0553 21.6076 23.6058C22.0419 23.1562 22.2857 22.5696 22.2857 21.9372V2.3791C22.2857 1.74671 22.0419 1.16005 21.6076 0.710525V0.710525Z" fill="#333333"/>
  <path d="M1.98095 10.021C1.6381 10.021 1.30286 9.92952 0.990476 9.75428C0.373333 9.39619 0 8.75619 0 8.04V1.98286C0 1.26667 0.373333 0.626667 0.990476 0.268571C1.60762 -0.0895238 2.34667 -0.0895238 2.96381 0.268571L8.21333 3.30095C8.83048 3.65905 9.20381 4.29905 9.20381 5.01524C9.20381 5.73143 8.83048 6.37143 8.21333 6.72952L2.96381 9.7619C2.65143 9.93714 2.31619 10.0286 1.97333 10.0286L1.98095 10.021ZM1.98095 1.52571C1.87429 1.52571 1.79048 1.56381 1.75238 1.58667C1.68381 1.62476 1.52381 1.74667 1.52381 1.98286V8.04C1.52381 8.27619 1.68381 8.39048 1.75238 8.43619C1.82095 8.47428 2.00381 8.55809 2.20952 8.43619L7.45905 5.40381C7.66476 5.2819 7.68762 5.09143 7.68762 5.00762C7.68762 4.92381 7.66476 4.73333 7.45905 4.61143L2.2019 1.58667C2.1181 1.54095 2.0419 1.52571 1.98095 1.52571Z" fill="#333333"/>
</svg>
