<svg width="23" height="25" viewBox="5 4 31.28 34" fill="none" xmlns="http://www.w3.org/2000/svg">
<path d="M28.9 20.08H20.55V22.02H28.9V20.08Z" fill="#333333"/>
<path d="M14.79 18.33C15.76 17.34 16.29 16.02 16.29 14.63V8.21C16.29 7.39 15.98 6.61 15.4 6.02C14.26 4.85 12.19 4.86 11.06 6.02C10.49 6.61 10.17 7.38 10.17 8.21V15.7H12.11V8.21C12.11 7.9 12.23 7.59 12.45 7.37C12.87 6.94 13.59 6.94 14.01 7.37C14.22 7.59 14.35 7.89 14.35 8.21V14.63C14.35 15.51 14 16.36 13.4 16.98C12.19 18.22 10.09 18.22 8.88 16.98C8.28 16.36 7.93 15.51 7.93 14.63V5H6V14.63C6 16.03 6.53 17.34 7.5 18.33C8.47 19.33 9.77 19.88 11.15 19.88C12.53 19.88 13.84 19.32 14.8 18.33H14.79Z" fill="#333333"/>
<path d="M28.9 13.66H20.55V15.6H28.9V13.66Z" fill="#333333"/>
<path d="M28.9003 26.5H14.2803V28.44H28.9003V26.5Z" fill="#333333"/>
<path d="M34.2001 6.02001C33.6301 5.44001 32.8401 5.10001 32.0301 5.10001H18.4601V7.04001H32.0401C32.3301 7.04001 32.6101 7.16001 32.8201 7.37001C33.0301 7.59001 33.1601 7.89001 33.1601 8.21001V33.89C33.1601 34.2 33.0401 34.51 32.8201 34.73C32.6101 34.95 32.3301 35.06 32.0401 35.06H11.1501C10.8601 35.06 10.5801 34.94 10.3701 34.73C10.1601 34.51 10.0301 34.21 10.0301 33.89V22.12H8.09009V33.89C8.09009 34.72 8.40009 35.49 8.98009 36.08C9.56009 36.67 10.3301 37 11.1501 37H32.0301C32.8401 37 33.6301 36.67 34.2001 36.08C34.7701 35.49 35.0901 34.72 35.0901 33.89V8.21001C35.0901 7.38001 34.7701 6.61001 34.2001 6.02001Z" fill="#333333"/>
</svg>
