<svg width="42" height="42" viewBox="0 0 42 42" fill="none" xmlns="http://www.w3.org/2000/svg">
<path d="M28.82 20.03H20.47V21.97H28.82V20.03Z" fill="#333333"/>
<path d="M28.82 13.61H20.47V15.55H28.82V13.61Z" fill="#333333"/>
<path d="M28.82 26.45H14.2V28.39H28.82V26.45Z" fill="#333333"/>
<path d="M34.12 5.96999C33.55 5.38999 32.76 5.04999 31.95 5.04999H20.38V6.98999H31.96C32.25 6.98999 32.53 7.10999 32.74 7.31999C32.95 7.53999 33.08 7.83999 33.08 8.15999V33.84C33.08 34.15 32.96 34.46 32.74 34.68C32.53 34.9 32.25 35.01 31.96 35.01H11.07C10.78 35.01 10.5 34.89 10.29 34.68C10.08 34.46 9.95001 34.16 9.95001 33.84V23.07H8.01001V33.84C8.01001 34.67 8.32001 35.44 8.90001 36.03C9.48001 36.62 10.25 36.95 11.07 36.95H31.95C32.76 36.95 33.55 36.62 34.12 36.03C34.69 35.44 35.01 34.67 35.01 33.84V8.15999C35.01 7.32999 34.69 6.55999 34.12 5.96999Z" fill="#333333"/>
<path d="M18.72 9.38L16.64 5.52C16.47 5.2 16.13 5 15.76 5C15.39 5 15.05 5.2 14.88 5.52L12.8 9.38C12.63 9.69 12.64 10.07 12.82 10.37C13 10.67 13.33 10.86 13.68 10.86H14.75V20.36H16.75V10.86H17.85C18.2 10.86 18.53 10.67 18.71 10.37C18.89 10.07 18.9 9.69 18.73 9.38H18.72Z" fill="#333333"/>
<path d="M6.1316 15.98L8.2116 19.84C8.3816 20.16 8.7216 20.36 9.0916 20.36C9.4616 20.36 9.8016 20.16 9.9716 19.84L12.0516 15.98C12.2216 15.67 12.2116 15.29 12.0316 14.99C11.8516 14.69 11.5216 14.5 11.1716 14.5L10.1016 14.5L10.1016 4.99999L8.1016 4.99999L8.1016 14.5L7.0016 14.5C6.6516 14.5 6.3216 14.69 6.1416 14.99C5.9616 15.29 5.9516 15.67 6.12161 15.98L6.1316 15.98Z" fill="#333333"/>
</svg>
