<svg xmlns="http://www.w3.org/2000/svg" width="23" height="25" viewBox="0 0 23 25" fill="none">
  <g clip-path="url(#clip0_31318_4719)">
    <path d="M17.4933 11.4209H11.9619V12.899H17.4933V11.4209Z" fill="#333333"/>
    <path d="M17.4933 6.5293H14.8267V8.00739H17.4933V6.5293Z" fill="#333333"/>
    <path d="M17.4933 16.3125H6.35425V17.7906H17.4933V16.3125Z" fill="#333333"/>
    <path d="M21.5314 0.708571C21.0971 0.266667 20.4952 0 19.8781 0H14.8723V1.4781H19.8857C20.1066 1.4781 20.32 1.56952 20.48 1.72952C20.64 1.89714 20.739 2.12571 20.739 2.36952V21.9352C20.739 22.1714 20.6476 22.4076 20.48 22.5752C20.32 22.7429 20.1066 22.8267 19.8857 22.8267H3.96949C3.74854 22.8267 3.5352 22.7352 3.3752 22.5752C3.2152 22.4076 3.11616 22.179 3.11616 21.9352V12.9676H1.63806V21.9352C1.63806 22.5676 1.87425 23.1543 2.31616 23.6038C2.75806 24.0533 3.34473 24.3048 3.96949 24.3048H19.8781C20.4952 24.3048 21.0971 24.0533 21.5314 23.6038C21.9657 23.1543 22.2095 22.5676 22.2095 21.9352V2.37714C22.2095 1.74476 21.9657 1.1581 21.5314 0.708571V0.708571Z" fill="#333333"/>
    <path d="M6.50667 11.8323C6.36953 11.8323 6.22477 11.7942 6.10286 11.718C-0.419042 7.79416 -0.228566 4.25893 0.160006 2.91797C0.647625 1.21131 2.22477 0.0379749 4.00763 0.0684511C4.12953 0.106546 4.26667 0.0836892 4.3962 0.0989273C5.24953 0.205594 5.96572 0.533213 6.50667 1.05893C7.04762 0.533213 7.77143 0.205594 8.62477 0.106546C10.4381 -0.114406 12.1905 0.982737 12.7924 2.7275C14.24 6.91036 8.68572 10.6513 6.94858 11.7027L6.90286 11.7332C6.78096 11.8018 6.64382 11.8399 6.51429 11.8399L6.50667 11.8323ZM6.53715 11.017L6.55239 11.0399L6.53715 11.0094V11.017ZM3.94667 1.59226C2.86477 1.59226 1.92001 2.30845 1.62286 3.33702C1.40191 4.09893 1.12762 6.81131 6.50667 10.1713C12.0305 6.71988 11.6191 3.98464 11.3524 3.21512C10.9867 2.14845 9.91239 1.47797 8.80763 1.61512C8.01524 1.70655 7.48953 2.05702 7.20001 2.67417C7.0781 2.94083 6.80382 3.11607 6.50667 3.11607C6.20953 3.11607 5.94286 2.94083 5.81334 2.67417C5.52382 2.0494 4.9981 1.70655 4.21334 1.6075C4.12191 1.59988 4.0381 1.59226 3.94667 1.59226V1.59226Z" fill="#D83F26"/>
  </g>
  <defs>
    <clipPath id="clip0_31318_4719">
      <rect width="22.2095" height="24.3048" fill="white"/>
    </clipPath>
  </defs>
</svg>
