<svg width="94" height="94" viewBox="0 0 94 94" fill="none" xmlns="http://www.w3.org/2000/svg">
<path d="M88.99 48.8802C88.99 44.0882 85.396 39.5158 78.8669 36.0017C78.1381 35.6123 77.2296 35.8819 76.8403 36.6107C76.4509 37.3395 76.7205 38.2479 77.4493 38.6373C82.9601 41.6024 85.995 45.2363 85.995 48.8802C85.995 57.8852 68.1248 65.4826 46.98 65.4826C25.8353 65.4826 7.98502 57.8752 7.98502 48.8802C7.98502 45.2463 11 41.6223 16.4809 38.6573C17.2097 38.2679 17.4792 37.3594 17.0899 36.6306C16.7005 35.9019 15.782 35.6323 15.0632 36.0217C8.57404 39.5258 5 44.0982 5 48.8802C5 55.03 10.7804 60.441 20.005 64.005L15.7621 74.4876C15.4526 75.2563 15.822 76.1248 16.5907 76.4343C16.7704 76.5042 16.97 76.5441 17.1497 76.5441C17.7388 76.5441 18.3078 76.1947 18.5374 75.6057L22.8403 64.9934C29.1098 67.02 36.6772 68.2679 44.9434 68.4476V79.5192C44.9434 80.3478 45.6123 81.0167 46.4409 81.0167C47.2696 81.0167 47.9384 80.3478 47.9384 79.5192V68.4576C56.2746 68.3777 63.9318 67.2197 70.3211 65.2629L74.5042 75.6057C74.7438 76.1847 75.3028 76.5441 75.8919 76.5441C76.0815 76.5441 76.2712 76.5042 76.4509 76.4343C77.2196 76.1248 77.589 75.2463 77.2795 74.4876L73.1564 64.3145C82.8602 60.7504 89 55.2197 89 48.8802H88.99Z" fill="#333333"/>
<path d="M22.4813 43.7587C23.31 43.7587 23.9788 43.0799 23.9689 42.2513L23.9489 39.0366C23.9489 26.3278 34.2717 15.995 46.9705 15.995C59.6694 15.995 70.0021 26.3278 70.0021 39.0466V42.2612C70.0121 45.5258 63.5828 49.0998 53.7293 50.2579C55.0171 47.6323 56.275 44.4775 56.7642 41.4226C57.4231 37.3195 56.8441 34.1747 55.057 32.0682C53.28 29.9817 50.4547 28.9734 46.4115 28.9734C42.3682 28.9734 39.5429 29.9917 37.7659 32.0682C35.9489 34.2047 35.3898 37.2596 36.0587 41.4226C36.5379 44.4176 37.7659 47.5025 39.0238 50.0982C33.7925 49.3494 29.31 47.8918 26.5246 45.9151C25.8557 45.4359 24.9173 45.5957 24.4381 46.2646C23.9589 46.9434 24.1186 47.8719 24.7975 48.3511C28.4015 50.9068 34.1818 52.6639 40.8807 53.3328C41.3299 53.6722 41.9389 53.7321 42.458 53.4725C43.9356 53.5824 45.4431 53.6423 46.9905 53.6423C48.2085 53.6423 49.3865 53.6023 50.5546 53.5424C50.7243 53.6023 50.884 53.6423 51.0537 53.6423C51.2933 53.6423 51.5329 53.5724 51.7526 53.4626C64.1619 52.5341 73.0171 48.0316 73.0171 42.2513V39.0366C73.0071 24.6805 61.3266 13 46.9805 13C32.6344 13 20.9639 24.6805 20.9639 39.0466L20.9838 42.2712C20.9838 43.0998 21.6527 43.7587 22.4813 43.7587ZM42.5778 50.4775C41.3599 48.1914 40.0021 45.2562 39.3033 42.3611L42.8075 43.4692C42.9572 43.5191 43.107 43.5391 43.2567 43.5391C43.8957 43.5391 44.4847 43.1298 44.6843 42.4909C44.9339 41.7022 44.4946 40.8636 43.706 40.614L38.904 39.0965C38.904 39.0965 38.8441 39.0865 38.8141 39.0765C38.6843 36.8303 39.0937 35.1231 40.0421 34.005C41.2101 32.6273 43.2967 31.9584 46.4115 31.9584C49.5263 31.9584 51.6028 32.6273 52.7808 34.005C53.7392 35.1331 54.1386 36.8503 54.0088 39.1265L49.2967 40.614C48.508 40.8636 48.0687 41.7022 48.3183 42.4909C48.5179 43.1298 49.107 43.5391 49.7459 43.5391C49.8957 43.5391 50.0454 43.5191 50.1952 43.4692L53.5096 42.421C52.8008 45.3261 51.4431 48.2712 50.2151 50.5474C49.1669 50.6073 48.0986 50.6473 46.9905 50.6473C45.493 50.6473 44.0154 50.5874 42.5778 50.4775Z" fill="#333333"/>
<path d="M52.7206 23.8819C52.9003 23.9517 53.09 23.9917 53.2697 23.9917C53.8687 23.9917 54.4278 23.6323 54.6674 23.0433C54.9669 22.2745 54.5975 21.406 53.8288 21.0965C52.2514 20.4775 50.5842 20.0582 48.887 19.8586C48.0584 19.7687 47.3196 20.3577 47.2298 21.1764C47.1399 21.995 47.7289 22.7438 48.5476 22.8336C49.9852 23.0033 51.3928 23.3527 52.7306 23.8819H52.7206Z" fill="#333333"/>
<path d="M29.3095 37.6789C30.0083 37.6789 30.6373 37.1897 30.777 36.4709C32.015 30.2213 35.9784 25.1298 41.1098 23.173C41.4892 23.0333 41.8785 22.9035 42.2679 22.7937C43.0666 22.5641 43.5258 21.7354 43.2962 20.9467C43.0666 20.1481 42.2379 19.6888 41.4493 19.9185C40.98 20.0482 40.5208 20.208 40.0516 20.3777C33.9517 22.7038 29.2795 28.6439 27.8419 35.9018C27.6822 36.7105 28.2113 37.4992 29.02 37.6589C29.1198 37.6789 29.2196 37.6888 29.3095 37.6888V37.6789Z" fill="#333333"/>
<path d="M13.7656 50.7271C13.7656 52.0649 14.8538 53.1531 16.1916 53.1531C17.5294 53.1531 18.6175 52.0649 18.6175 50.7271C18.6175 49.3893 17.5294 48.3011 16.1916 48.3011C14.8538 48.3011 13.7656 49.3893 13.7656 50.7271Z" fill="#333333"/>
<path d="M25.6357 57.1963C25.6357 58.5341 26.7239 59.6223 28.0517 59.6223C29.3795 59.6223 30.4777 58.5341 30.4777 57.1963C30.4777 55.8586 29.3895 54.7704 28.0517 54.7704C26.7139 54.7704 25.6357 55.8586 25.6357 57.1963Z" fill="#333333"/>
<path d="M76.841 53.1531C78.1788 53.1531 79.267 52.0649 79.267 50.7271C79.267 49.3893 78.1788 48.3011 76.841 48.3011C75.5032 48.3011 74.415 49.3893 74.415 50.7271C74.415 52.0649 75.5032 53.1531 76.841 53.1531Z" fill="#333333"/>
<path d="M62.5342 57.1963C62.5342 58.5341 63.6224 59.6223 64.9601 59.6223C66.2979 59.6223 67.3861 58.5341 67.3861 57.1963C67.3861 55.8586 66.2979 54.7704 64.9601 54.7704C63.6224 54.7704 62.5342 55.8586 62.5342 57.1963Z" fill="#333333"/>
<path d="M43.7852 60.1315C43.7852 61.589 44.9632 62.7671 46.4208 62.7671C47.8783 62.7671 49.0663 61.579 49.0663 60.1315C49.0663 58.6839 47.8783 57.4958 46.4208 57.4958C44.9632 57.4958 43.7852 58.6839 43.7852 60.1315Z" fill="#333333"/>
</svg>
