<svg width="24" height="24" viewBox="0 0 24 24" fill="none" xmlns="http://www.w3.org/2000/svg">
<path d="M20 21H4C3.45 21 3 20.55 3 20V10C3 9.77 3.08 9.54 3.23 9.36L5 7.24V4C5 3.45 5.45 3 6 3H8.5C8.9 3 9.26 3.24 9.42 3.6L12 9.51L14.58 3.6C14.74 3.24 15.1 3 15.5 3H18C18.55 3 19 3.45 19 4V7.24L20.77 9.36C20.92 9.54 21 9.77 21 10V20C21 20.55 20.55 21 20 21ZM13 19H19V10.36L17.23 8.24C17.08 8.06 17 7.83 17 7.6V5H16.15L13 12.21V19ZM5 19H11V12.21L7.85 5H7V7.6C7 7.83 6.92 8.06 6.77 8.24L5 10.36V19Z" fill="#333333"/>
</svg>
