<?xml version="1.0" encoding="utf-8"?>
<!-- Generator: Adobe Illustrator 27.2.0, SVG Export Plug-In . SVG Version: 6.00 Build 0)  -->
<svg version="1.1" id="Layer_2" xmlns="http://www.w3.org/2000/svg" xmlns:xlink="http://www.w3.org/1999/xlink" x="0px" y="0px"
	 viewBox="0 0 24 24" style="enable-background:new 0 0 24 24;" xml:space="preserve">
<style type="text/css">
	.st0{fill:#333333;}
</style>
<path class="st0" d="M21,20.1V10c0-0.2-0.1-0.3-0.2-0.4c-0.3-0.4-0.7-0.8-1-1.2l0,0c-0.3-0.4-0.6-0.7-0.8-1.1V3.7
	C19,3.3,18.7,3,18.3,3h-2.7c-0.3,0-0.5,0.2-0.6,0.4C13.9,5.6,13,7.8,12,10C11,7.8,10,5.6,9.1,3.4C9,3.2,8.7,3,8.4,3H5.7
	C5.3,3,5,3.3,5,3.7v3.5C4.7,7.6,4.4,7.9,4.2,8.3c-0.3,0.4-0.7,0.8-1,1.2C3.1,9.6,3,9.8,3,10v10.2c0,0.1,0,0.3,0,0.4
	C3.2,20.8,3.4,21,3.7,21l4.1,0l4.1,0c0,0,0,0,0,0s0,0,0,0l4.1,0l4.1,0c0.3,0,0.5-0.2,0.6-0.4C21,20.4,21,20.3,21,20.1z M11.3,19.6
	l-3.4,0l-3.4,0v-9.4C4.7,9.8,5,9.5,5.3,9.1l0,0c0.3-0.4,0.7-0.8,1-1.2c0.1-0.1,0.2-0.3,0.2-0.4V4.4H8c1.1,2.5,2.2,5,3.3,7.5V19.6z
	 M19.6,19.6l-3.4,0l-3.4,0v-7.7c1.1-2.5,2.2-5,3.3-7.5h1.6v3.1c0,0.2,0.1,0.3,0.2,0.4c0.3,0.4,0.7,0.8,1,1.2l0,0l0,0l0,0l0,0
	c0.3,0.3,0.6,0.7,0.8,1V19.6z"/>
</svg>
