<svg width="17" height="18" viewBox="0 0 17 18" fill="none" xmlns="http://www.w3.org/2000/svg">
<g clip-path="url(#clip0_3741_1448)">
<path d="M14.1667 15.375H2.83333C2.44375 15.375 2.125 15.0562 2.125 14.6667V7.58333C2.125 7.42042 2.18167 7.2575 2.28792 7.13L3.54167 5.62833V3.33333C3.54167 2.94375 3.86042 2.625 4.25 2.625H6.02083C6.30417 2.625 6.55917 2.795 6.6725 3.05L8.5 7.23625L10.3275 3.05C10.4408 2.795 10.6958 2.625 10.9792 2.625H12.75C13.1396 2.625 13.4583 2.94375 13.4583 3.33333V5.62833L14.7121 7.13C14.8183 7.2575 14.875 7.42042 14.875 7.58333V14.6667C14.875 15.0562 14.5562 15.375 14.1667 15.375ZM9.20833 13.9583H13.4583V7.83833L12.2046 6.33667C12.0983 6.20917 12.0417 6.04625 12.0417 5.88333V4.04167H11.4396L9.20833 9.14875V13.9583ZM3.54167 13.9583H7.79167V9.14875L5.56042 4.04167H4.95833V5.88333C4.95833 6.04625 4.90167 6.20917 4.79542 6.33667L3.54167 7.83833V13.9583Z" fill="white"/>
</g>
<defs>
<clipPath id="clip0_3741_1448">
<rect width="12.75" height="12.75" fill="white" transform="translate(2.125 2.625)"/>
</clipPath>
</defs>
</svg>
