<svg width="24" height="24" viewBox="0 0 24 24" fill="none" xmlns="http://www.w3.org/2000/svg">
<g clip-path="url(#clip0_3741_1646)">
<path d="M11.61 19.93H12.33V19.9304V19.9338V19.9373V19.9407V19.9442V19.9476V19.9511V19.9546V19.958V19.9615V19.965V19.9685V19.972V19.9754V19.9789V19.9824V19.9859V19.9894V19.9929V19.9964V19.9999V20.0034V20.0069V20.0104V20.014V20.0175V20.021V20.0245V20.028V20.0315V20.0351V20.0386V20.0421V20.0456V20.0492V20.0527V20.0562V20.0598V20.0633V20.0668V20.0704V20.0739V20.0774V20.081V20.0845V20.088V20.0916V20.0951V20.0986V20.1022V20.1057V20.1093V20.1128V20.1163V20.1199V20.1234V20.1269V20.1305V20.134V20.1376V20.1411V20.1446V20.1482V20.1517V20.1552V20.1588V20.1623V20.1658V20.1693V20.1729V20.1764V20.1799V20.1834V20.187V20.1905V20.194V20.1975V20.201V20.2045V20.208V20.2115V20.2151V20.2186V20.2221V20.2256V20.2291V20.2325V20.236V20.2395V20.243V20.2465V20.25V20.2535V20.2569V20.2604V20.2639V20.2673V20.2708V20.2743V20.2777V20.2812V20.2846V20.2881V20.2915V20.2949V20.2984V20.3018V20.3052V20.3087V20.3121V20.3155V20.3189V20.3223V20.3257V20.3291V20.33H10.92H10.9199H10.9199H10.9198H10.9198H10.9197H10.9196H10.9196H10.9195H10.9195H10.9194H10.9194H10.9193H10.9192H10.9192H10.9191H10.9191H10.919H10.9189H10.9189H10.9188H10.9188H10.9187H10.9187H10.9186H10.9185H10.9185H10.9184H10.9184H10.9183H10.9182H10.9182H10.9181H10.9181H10.918H10.918H10.9179H10.9178H10.9178H10.9177H10.9177H10.9176H10.9175H10.9175H10.9174H10.9174H10.9173H10.9173H10.9172H10.9171H10.9171H10.917H10.917H10.9169H10.9168H10.9168H10.9167H10.9167H10.9166H10.9166H10.9165H10.9164H10.9164H10.9163H10.9163H10.9162H10.9162H10.9161H10.916H10.916H10.9159H10.9159H10.9158H10.9158H10.9157H10.9156H10.9156H10.9155H10.9155H10.9154H10.9154H10.9153H10.9152H10.9152H10.9151H10.9151H10.915H10.915H10.9149H10.9148H10.9148H10.9147H10.9147H10.9146H10.9146H10.9145H10.9144H10.9144H10.9143H10.9143H10.9142H10.9142H10.9141H10.914H10.914H10.9139H10.9139H10.9138H10.9138H10.9137H10.9137H10.9136H10.9135H10.9135H10.9134H10.9134H10.9133H10.9133H10.9132H10.9132H10.9131H10.913H10.913H10.9129H10.9129H10.9128H10.9128H10.9127H10.9127H10.9126H10.9125H10.9125H10.9124H10.9124H10.9123H10.9123H10.9122H10.9122H10.9121H10.9121H10.912H10.9119H10.9119H10.9118H10.9118H10.9117H10.9117H10.9116H10.9116H10.9115H10.9115H10.9114H10.9114H10.9113H10.9112H10.9112H10.9111H10.9111H10.911H10.911H10.9109H10.9109H10.9108H10.9108H10.9107H10.9107H10.9106H10.9106H10.9105H10.9105H10.9104H10.9104H10.9103H10.9102H10.9102H10.9101H10.9101H10.91H10.91H10.9099H10.9099H10.9098H10.9098H10.9097H10.9097H10.9096H10.9096H10.9095H10.9095H10.9094H10.9094H10.9093H10.9093H10.9092H10.9092H10.9091H10.9091H10.909H10.909H10.9089H10.9089H10.9088H10.9088H10.9087H10.9087H10.9086H10.9086H10.9085H10.9085H10.9084H10.9084H10.9083H10.9083H10.9082H10.9082H10.9081H10.9081H10.908H10.908H10.908H10.9079H10.9079H10.9078H10.9078H10.9077H10.9077H10.9076H10.9076H10.9075H10.9075H10.9074H10.9074H10.9073H10.9073H10.9072H10.9072H10.9072H10.9071H10.9071H10.907H10.907H10.9069H10.9069H10.9068H10.9068H10.9067H10.9067H10.9066H10.9066H10.9066H10.9065H10.9065H10.9064H10.9064H10.9063H10.9063H10.9062H10.9062H10.9062H10.9061H10.9061H10.906H10.906H10.9059H10.9059H10.9059H10.9058H10.9058H10.9057H10.9057H10.9056H10.9056H10.9056H10.9055H10.9055H10.9054H10.9054H10.9054H10.9053H10.9053H10.9052H10.9052H10.9051H10.9051H10.9051H10.905H10.905H10.9049H10.9049H10.9049H10.9048H10.9048H10.9047H10.9047H10.9047H10.9046H10.9046H10.9045H10.9045H10.9045H10.9044H10.9044H10.9044H10.9043H10.9043H10.9042H10.9042H10.9042H10.9041H10.9041H10.9041H10.904H10.904H10.9039H10.9039H10.9039H10.9038H10.9038H10.9038H10.9037H10.9037H10.9037H10.9036H10.9036H10.9035H10.9035H10.9035H10.9034H10.9034H10.9034H10.9033H10.9033H10.9033H10.9032H10.9032H10.9032H10.9031H10.9031H10.9031H10.903H10.903H10.903H10.9029H10.9029H10.9029H10.9028H10.9028H10.9028H10.9027H10.9027H10.9027H10.9027H10.9026H10.9026H10.9026H10.9025H10.9025H10.9025H10.9024H10.9024H10.9024H10.9024H10.9023H10.9023H10.9023H10.9022H10.9022H10.9022H10.9022H10.9021H10.9021H10.9021H10.902H10.902H10.902H10.902H10.9019H10.9019H10.9019H10.9018L10.9018 20.33L10.9018 20.33H10.9018H10.9017H10.9017H10.9017H10.9017H10.9016H10.9016H10.9016H10.9016H10.9015H10.9015H10.9015H10.9015H10.9014H10.9014H10.9014H10.9014H10.9014H10.9013H10.9013H10.9013H10.9013H10.9012H10.9012H10.9012H10.9012H10.9012H10.9011H10.9011H10.9011H10.9011H10.901H10.901H10.901H10.901H10.901H10.9009H10.9009H10.9009H10.9009H10.9009H10.9009H10.9008H10.9008H10.9008H10.9008H10.9008H10.9007H10.9007H10.9007H10.9007H10.9007H10.9007H10.9006H10.9006H10.9006H10.9006H10.9006H10.9006H10.9005H10.9005H10.9005H10.9005H10.9004H10.9004H10.9004H10.9004H10.9003H10.9003H10.9003H10.9003H10.9003H10.9002H10.9002H10.9002H10.9002H10.9002H10.9001H10.9001H10.9001H10.9001H10.9001H10.9001H10.9H10.9H10.9L2.70183 20.3H2.7C2.58614 20.3 2.5 20.2139 2.5 20.1V9.89C2.5 9.84984 2.51713 9.80247 2.54411 9.77009L2.54418 9.77015L2.54993 9.76297L4.37993 7.48297L4.49 7.34584V7.17V3.7C4.49 3.58614 4.57614 3.5 4.69 3.5H7.4C7.47598 3.5 7.54985 3.54753 7.58234 3.62137L7.58286 3.62255L10.4629 10.1225L10.92 11.1543L11.3771 10.1225L14.2571 3.62255L14.2572 3.62258L14.2605 3.61482C14.2898 3.54546 14.3546 3.5 14.44 3.5H17.14C17.2443 3.5 17.3255 3.59064 17.3207 3.68439L17.32 3.69719V3.71V7.17V7.34659L17.4309 7.48401L19.2709 9.76401L19.2808 9.77626L19.2914 9.78786C19.301 9.79836 19.32 9.82948 19.32 9.89V11.913C19.1918 11.9116 19.0565 11.9108 18.93 11.9104V10.15V9.97341L18.8191 9.83599L16.9791 7.55599L16.9792 7.55591L16.9717 7.54703C16.9422 7.51222 16.93 7.47834 16.93 7.43V4.41V3.91H16.43H14.88H14.5545L14.4228 4.20768L11.1528 11.5977L11.11 11.6943V11.8V19.43V19.93H11.61ZM3.0109 9.82599L2.9 9.96341V10.14V19.39V19.8878L3.3978 19.89L10.2178 19.92L10.72 19.9222V19.42V11.79V11.6843L10.6772 11.5877L7.40724 4.19768L7.27552 3.9H6.95H5.4H4.9V4.4V7.42C4.9 7.46016 4.88287 7.50753 4.85589 7.53991L4.85584 7.53987L4.8509 7.54599L3.0109 9.82599Z" fill="#6F7177" stroke="#6F7177"/>
<path d="M20.7373 16.273L20.7644 16.3516C20.7687 16.3845 20.7673 16.4164 20.7611 16.4452C20.7516 16.4895 20.7278 16.5398 20.6836 16.5897L19.5291 17.794L19.347 17.9839L19.4004 18.2415L19.7404 19.8813C19.7606 19.979 19.7274 20.0853 19.6315 20.1645L19.6132 20.1796L19.6087 20.1842C19.607 20.1849 19.6049 20.1858 19.6025 20.1869C19.6002 20.1878 19.5977 20.1889 19.595 20.19H19.5737L19.4987 20.22H19.4986H19.4985H19.4984H19.4982H19.4981H19.498H19.4978H19.4977H19.4975H19.4974H19.4973H19.4971H19.497H19.4969H19.4967H19.4966H19.4965H19.4963H19.4962H19.4961H19.4959H19.4958H19.4956H19.4955H19.4954H19.4952H19.4951H19.495H19.4948H19.4947H19.4945H19.4944H19.4943H19.4941H19.494H19.4938H19.4937H19.4936H19.4934H19.4933H19.4931H19.493H19.4929H19.4927H19.4926H19.4925H19.4923H19.4922H19.492H19.4919H19.4917H19.4916H19.4915H19.4913H19.4912H19.491H19.4909H19.4908H19.4906H19.4905H19.4903H19.4902H19.4901H19.4899H19.4898H19.4896H19.4895H19.4893H19.4892H19.4891H19.4889H19.4888H19.4886H19.4885H19.4884H19.4882H19.4881H19.4879H19.4878H19.4876H19.4875H19.4873H19.4872H19.4871H19.4869H19.4868H19.4866H19.4865H19.4863H19.4862H19.4861H19.4859H19.4858H19.4856H19.4855H19.4853H19.4852H19.485H19.4849H19.4848H19.4846H19.4845H19.4843H19.4842H19.484H19.4839H19.4837H19.4836H19.4835H19.4833H19.4832H19.483H19.4829H19.4827H19.4826H19.4824H19.4823H19.4822H19.482H19.4819H19.4817H19.4816H19.4814H19.4813H19.4811H19.481H19.4808H19.4807H19.4805H19.4804H19.4803H19.4801H19.48H19.4798H19.4797H19.4795H19.4794H19.4792H19.4791H19.4789H19.4788H19.4787H19.4785H19.4784H19.4782H19.4781H19.4779H19.4778H19.4776H19.4775H19.4773H19.4772H19.477H19.4769H19.4767H19.4766H19.4765H19.4763H19.4762H19.476H19.4759H19.4757H19.4756H19.4754H19.4753H19.4751H19.475H19.4748H19.4747H19.4746H19.4744H19.4743H19.4741H19.474H19.4738H19.4737H19.4735H19.4734H19.4732H19.4731H19.4729H19.4728H19.4726H19.4725H19.4724H19.4722H19.4721H19.4719H19.4718H19.4716H19.4715H19.4713H19.4712H19.471H19.4709H19.4707H19.4706H19.4705H19.4703H19.4702H19.47H19.4699H19.4697H19.4696H19.4694H19.4693H19.4691H19.469H19.4688H19.4687H19.4686H19.4684H19.4683H19.4681H19.468H19.4678H19.4677H19.4675H19.4674H19.4672H19.4671H19.467H19.4668H19.4667H19.4665H19.4664H19.4662H19.4661H19.4659H19.4658H19.4657H19.4655H19.4654H19.4652H19.4651H19.4649H19.4648H19.4646H19.4645H19.4644H19.4642H19.4641H19.4639H19.4638H19.4636H19.4635H19.4633H19.4632H19.4631H19.4629H19.4628H19.4626H19.4625H19.4623H19.4622H19.4621H19.4619H19.4618H19.4616H19.4615H19.4613H19.4612H19.4611H19.4609H19.4608H19.4606H19.4605H19.4603H19.4602H19.4601H19.4599H19.4598H19.4596H19.4595H19.4594H19.4592H19.4591H19.4589H19.4588H19.4587H19.4585H19.4584H19.4582H19.4581H19.458H19.4578H19.4577H19.4575H19.4574H19.4573H19.4571H19.457H19.4568H19.4567H19.4566H19.4564H19.4563H19.4561H19.456H19.4559H19.4557H19.4556H19.4554H19.4553H19.4552H19.455H19.4549H19.4548H19.4546H19.4545H19.4543H19.4542H19.4541H19.4539H19.4538H19.4537H19.4535H19.4534H19.4532H19.4531H19.453H19.4528H19.4527H19.4526H19.4524H19.4523H19.4522H19.452H19.4519H19.4518H19.4516H19.4515H19.4514H19.4512H19.4511H19.451H19.4508H19.4507H19.4506H19.4504H19.4503H19.4502H19.45H19.4499H19.4498H19.4496H19.4495H19.4494H19.4492H19.4491H19.449H19.4488H19.4487H19.4486H19.4484H19.4483H19.4482H19.4481H19.4479H19.4478H19.4477H19.4475H19.4474H19.4473H19.4471H19.447H19.4469H19.4468H19.4466H19.4465H19.4464H19.4462H19.4461H19.446H19.4459H19.4457H19.4456H19.4455H19.4454H19.4452H19.4451H19.445H19.4449H19.4447H19.4446H19.4445H19.4444H19.4442H19.4441H19.444H19.4439H19.4437H19.4436H19.4435H19.4434H19.4432H19.4431H19.443H19.4429H19.4427H19.4426H19.4425H19.4424H19.4423H19.4421H19.442H19.4419H19.4418H19.4417H19.4415H19.4414H19.4413H19.4412H19.4411H19.4409H19.4408H19.4407H19.4406H19.4405H19.4403H19.4402H19.4401H19.44C19.4254 20.22 19.4037 20.2171 19.3775 20.2092C19.3564 20.1998 19.339 20.1936 19.3276 20.1899C19.3172 20.1864 19.3071 20.1834 19.2975 20.1808L17.8476 19.4798L17.6103 19.3651L17.3816 19.4961L15.9316 20.3261L15.8979 20.3453L15.8942 20.3483C15.892 20.3491 15.8896 20.3499 15.8869 20.3508L15.8673 20.3573L15.8623 20.3589C15.8557 20.3593 15.8386 20.36 15.8 20.36C15.7515 20.36 15.6976 20.3465 15.641 20.3152C15.5807 20.2666 15.549 20.2229 15.534 20.1905C15.516 20.1516 15.5074 20.1078 15.5156 20.0462C15.5156 20.0462 15.5156 20.0461 15.5156 20.0461L15.6456 19.0764L15.6458 19.0747L15.7358 18.3847L15.7695 18.1261L15.5768 17.9504L14.3368 16.8204L14.3363 16.82C14.2858 16.774 14.2619 16.7317 14.2508 16.6926C14.2364 16.6424 14.2364 16.5876 14.2508 16.5373C14.279 16.4386 14.3676 16.3595 14.4649 16.3427L14.4649 16.3427L14.4694 16.3419L16.1194 16.0419L16.3803 15.9945L16.4874 15.752L17.1669 14.2131C17.167 14.2129 17.167 14.2128 17.1671 14.2126C17.2164 14.1022 17.31 14.05 17.39 14.05H17.3901H17.3902H17.3903H17.3905H17.3906H17.3907H17.3908H17.3909H17.391H17.3912H17.3913H17.3914H17.3915H17.3916H17.3917H17.3919H17.392H17.3921H17.3922H17.3923H17.3925H17.3926H17.3927H17.3928H17.3929H17.393H17.3932H17.3933H17.3934H17.3935H17.3936H17.3937H17.3939H17.394H17.3941H17.3942H17.3943H17.3944H17.3946H17.3947H17.3948H17.3949H17.395H17.3951H17.3953H17.3954H17.3955H17.3956H17.3957H17.3958H17.396H17.3961H17.3962H17.3963H17.3964H17.3966H17.3967H17.3968H17.3969H17.397H17.3971H17.3973H17.3974H17.3975H17.3976H17.3977H17.3978H17.398H17.3981H17.3982H17.3983H17.3984H17.3985H17.3987H17.3988H17.3989H17.399H17.3991H17.3992H17.3994H17.3995H17.3996H17.3997H17.3998H17.4H17.4001H17.4002H17.4003H17.4004H17.4005H17.4007H17.4008H17.4009H17.401H17.4011H17.4012H17.4014H17.4015H17.4016H17.4017H17.4018H17.4019H17.4021H17.4022H17.4023H17.4024H17.4025H17.4026H17.4028H17.4029H17.403H17.4031H17.4032H17.4033H17.4035H17.4036H17.4037H17.4038H17.4039H17.4041H17.4042H17.4043H17.4044H17.4045H17.4046H17.4048H17.4049H17.405H17.4051H17.4052H17.4053H17.4055H17.4056H17.4057H17.4058H17.4059H17.406H17.4062H17.4063H17.4064H17.4065H17.4066H17.4067H17.4069H17.407H17.4071H17.4072H17.4073H17.4075H17.4076H17.4077H17.4078H17.4079H17.408H17.4082H17.4083H17.4084H17.4085H17.4086H17.4087H17.4089H17.409H17.4091H17.4092H17.4093H17.4094H17.4096H17.4097H17.4098H17.4099H17.41H17.4101H17.4103H17.4104H17.4105H17.4106H17.4107H17.4108H17.411H17.4111H17.4112H17.4113H17.4114H17.4116H17.4117H17.4118H17.4119H17.412H17.4121H17.4123H17.4124H17.4125H17.4126H17.4127H17.4128H17.413H17.4131H17.4132H17.4133H17.4134H17.4135H17.4137H17.4138H17.4139H17.414H17.4141H17.4142H17.4144H17.4145H17.4146H17.4147H17.4148H17.415H17.4151H17.4152H17.4153H17.4154H17.4155H17.4157H17.4158H17.4159H17.416H17.4161H17.4162H17.4164H17.4165H17.4166H17.4167H17.4168H17.4169H17.4171H17.4172H17.4173H17.4174H17.4175H17.4176H17.4178H17.4179H17.418H17.4181H17.4182H17.4183H17.4185H17.4186H17.4187H17.4188H17.4189H17.4191H17.4192H17.4193H17.4194H17.4195H17.4196H17.4198H17.4199H17.42H17.4201H17.4202H17.4203H17.4205H17.4206H17.4207H17.4208H17.4209H17.421H17.4212H17.4213H17.4214H17.4215H17.4216H17.4217H17.4219H17.422H17.4221H17.4222H17.4223H17.4225H17.4226H17.4227H17.4228H17.4229H17.423H17.4232H17.4233H17.4234H17.4235H17.4236H17.4237H17.4239H17.424H17.4241H17.4242H17.4243H17.4244H17.4246H17.4247H17.4248H17.4249H17.425H17.4251H17.4253H17.4254H17.4255H17.4256H17.4257H17.4258H17.426H17.4261H17.4262H17.4263H17.4264H17.4266H17.4267H17.4268H17.4269H17.427H17.4271H17.4273H17.4274H17.4275H17.4276H17.4277H17.4278H17.428H17.4281H17.4282H17.4283H17.4284H17.4285H17.4287H17.4288H17.4289H17.429H17.4291H17.4292H17.4294H17.4295H17.4296H17.4297H17.4298H17.43H17.4301H17.4302H17.4303H17.4304H17.4305H17.4307H17.4308H17.4309H17.431H17.4311H17.4312H17.4314H17.4315H17.4316H17.4317H17.4318H17.4319H17.4321H17.4322H17.4323H17.4324H17.4325H17.4326H17.4328H17.4329H17.433H17.4331H17.4332H17.4333H17.4335H17.4336H17.4337H17.4338H17.4339H17.4341H17.4342H17.4343H17.4344H17.4345H17.4346H17.4348H17.4349H17.435H17.4351H17.4352H17.4353H17.4355H17.4356H17.4357H17.4358H17.4359H17.436H17.4362H17.4363H17.4364H17.4365H17.4366H17.4367H17.4369H17.437H17.4371H17.4372H17.4373H17.4375H17.4376H17.4377H17.4378H17.4379H17.438H17.4382H17.4383H17.4384H17.4385H17.4386H17.4387H17.4389H17.439H17.4391H17.4392H17.4393H17.4394H17.4396H17.4397H17.4398H17.4399H17.44H17.4401H17.4403H17.4404H17.4405H17.4406H17.4407H17.4408H17.441H17.4411H17.4412H17.4413H17.4414H17.4416H17.4417H17.4418H17.4419H17.442H17.4421H17.4423H17.4424H17.4425H17.4426H17.4427H17.4428H17.443H17.4431H17.4432H17.4433H17.4434H17.4435H17.4437H17.4438H17.4439H17.444H17.4441H17.4442H17.4444H17.4445H17.4446H17.4447H17.4448H17.445H17.4451H17.4452H17.4453H17.4454H17.4455H17.4457H17.4458H17.4459H17.446H17.4461H17.4462H17.4464H17.4465H17.4466H17.4467H17.4468H17.4469H17.4471H17.4472H17.4473H17.4474H17.4475H17.4476H17.4478H17.4479H17.448H17.4481H17.4482H17.4483H17.4485H17.4486H17.4487H17.4488H17.4489H17.4491H17.4492H17.4493H17.4494H17.4495H17.4496H17.4498H17.4499H17.45H17.4502H17.4503H17.4505H17.4507H17.4509H17.451H17.4512H17.4514H17.4516H17.4518H17.4519H17.4521H17.4523H17.4525H17.4527H17.4528H17.453H17.4532H17.4534H17.4535H17.4537H17.4539H17.4541H17.4543H17.4545H17.4546H17.4548H17.455H17.4552H17.4554H17.4555H17.4557H17.4559H17.4561H17.4563H17.4565H17.4566H17.4568H17.457H17.4572H17.4574H17.4576H17.4577H17.4579H17.4581H17.4583H17.4585H17.4587H17.4589H17.459H17.4592H17.4594H17.4596H17.4598H17.46H17.4602H17.4604H17.4605H17.4607H17.4609H17.4611H17.4613H17.4615H17.4617H17.4619H17.462H17.4622H17.4624H17.4626H17.4628H17.463H17.4632H17.4634H17.4636H17.4638H17.4639H17.4641H17.4643H17.4645H17.4647H17.4649H17.4651H17.4653H17.4655H17.4657H17.4659H17.4661H17.4662H17.4664H17.4666H17.4668H17.467H17.4672H17.4674H17.4676H17.4678H17.468H17.4682H17.4684H17.4686H17.4688H17.469H17.4691H17.4693H17.4695H17.4697H17.4699H17.4701H17.4703H17.4705H17.4707H17.4709H17.4711H17.4713H17.4715H17.4717H17.4719H17.4721H17.4723H17.4725H17.4727H17.4729H17.4731H17.4733H17.4735H17.4737H17.4739H17.4741H17.4742H17.4744H17.4746H17.4748H17.475H17.4752H17.4754H17.4756H17.4758H17.476H17.4762H17.4764H17.4766H17.4768H17.477H17.4772H17.4774H17.4776H17.4778H17.478H17.4782H17.4784H17.4786H17.4788H17.479H17.4792H17.4794H17.4796H17.4798H17.48H17.4802H17.4804H17.4806H17.4808H17.481H17.4812H17.4814H17.4816H17.4818H17.482H17.4822H17.4824H17.4826H17.4829H17.4831H17.4833H17.4835H17.4837H17.4839H17.4841H17.4843H17.4845H17.4847H17.4849H17.4851H17.4853H17.4855H17.4857H17.4859H17.4861H17.4863H17.4865H17.4867H17.4869H17.4871H17.4873H17.4875H17.4877H17.4879H17.4881H17.4883H17.4885H17.4887H17.4889H17.4891H17.4892C17.5011 14.052 17.5118 14.0535 17.5212 14.0546L17.5264 14.0572C17.5422 14.0651 17.5566 14.0715 17.5671 14.076C17.5738 14.0814 17.577 14.0842 17.5777 14.0848L17.6338 14.1409L17.6374 14.1427C17.6388 14.1446 17.6402 14.1465 17.6417 14.1484C17.6497 14.1593 17.6533 14.1651 17.6542 14.1664L17.6567 14.1714L17.6608 14.179L18.4608 15.649L18.5855 15.8781L18.8448 15.9069L19.3848 15.9669L19.3848 15.9669L19.3872 15.9672L20.5172 16.0872L20.5185 16.0873C20.6078 16.0966 20.6983 16.1599 20.7373 16.273ZM19.6684 20.19C19.6743 20.1898 19.6755 20.19 19.67 20.19H19.6684Z" fill="#6F7177" stroke="#6F7177"/>
</g>
<defs>
<clipPath id="clip0_3741_1646">
<rect width="19.27" height="17.84" fill="white" transform="translate(2 3)"/>
</clipPath>
</defs>
</svg>
