<svg width="84" height="31" viewBox="0 0 84 31" fill="none" xmlns="http://www.w3.org/2000/svg">
<path fill-rule="evenodd" clip-rule="evenodd" d="M0 0L9.8139 -4.53079e-08C13.4437 -6.20658e-08 14.631 1.50811 15.7841 3.06165L27.329 18.616C27.4631 18.8104 27.6439 18.7327 27.7533 18.616L38.2326 4.05196C39.9476 1.66835 41.9026 0.0417318 46.4093 0.0417318L72.8554 0.0417317C76.5566 0.0417317 84 3.52389 84 11.3764C84 17.2981 78.9575 22.2247 74.1861 22.2247C74.0031 22.1954 73.9465 22.3933 74.2818 22.8343L80.4153 30.9009L70.7677 30.9009C67.1482 30.9009 65.1304 29.0905 63.8038 27.2807L62.5426 25.56C61.6092 24.1241 59.0105 22.6461 56.8605 22.6461L45.7177 22.6461L49.8761 17.1385C51.7647 14.6371 53.9399 14.0137 58.3842 14.0137L69.0467 14.0137C73.7932 14.0137 73.3678 8.6763 69.1423 8.6763L52.9278 8.6763C50.8529 8.6763 47.7309 9.68808 45.2436 13.1494L35.2634 27.0375C31.8225 31.9102 23.8196 32.7162 19.7692 27.0375L0 0Z" fill="#009041"/>
</svg>
